# Blender v2.79 (sub 0) OBJ File: ''
# www.blender.org
mtllib globe0092.mtl
o polyhedronisme-A10tkD
v -3.340472 0.617772 -0.842339
v -3.256269 -0.000025 -1.283233
v -3.340472 -0.617821 -0.842339
v -3.476716 -0.381843 -0.128957
v -3.476716 0.381796 -0.128957
v -2.884013 1.837810 -0.391724
v -3.028280 1.296249 -1.007154
v -3.314149 0.801120 0.489677
v -3.033639 1.578656 0.391725
v -3.314148 -0.801161 0.489677
v -3.191653 -0.419338 1.219105
v -3.191654 0.419304 1.219105
v -2.535865 0.716497 -2.214651
v -2.851602 -0.000024 -1.932246
v -2.628339 1.394974 -1.730453
v -3.028279 -1.296296 -1.007154
v -2.884012 -1.837851 -0.391724
v -3.033637 -1.578694 0.391725
v -2.535864 -0.716543 -2.214651
v -2.628337 -1.395019 -1.730453
v -2.636763 1.974376 1.007155
v -2.796672 0.801127 1.844452
v -2.522291 1.578663 1.730454
v -2.092155 2.021362 -1.844451
v -2.350894 2.469506 -0.489676
v -1.958976 2.554334 -1.219104
v -2.636761 -1.974406 1.007155
v -2.522289 -1.578686 1.730454
v -2.796671 -0.801153 1.844452
v -1.915477 0.725088 -2.769544
v -1.610826 -0.000019 -3.042031
v -1.915476 -0.725129 -2.769543
v -2.205273 2.583980 0.842340
v -2.069030 2.819956 0.128958
v -2.092153 -2.021400 -1.844451
v -1.958973 -2.554368 -1.219104
v -2.350891 -2.469541 -0.489675
v -2.505419 -0.381828 2.413934
v -2.505420 0.381810 2.413933
v -1.583380 1.978796 -2.413933
v -1.499177 1.360999 -2.854827
v -2.069027 -2.819984 0.128959
v -2.205271 -2.584005 0.842341
v -1.499175 -1.361034 -2.854827
v -1.583378 -1.978831 -2.413932
v -1.628136 2.819962 1.283234
v -1.888468 1.837823 2.214652
v -1.425803 2.469518 1.932247
v -1.407689 3.201781 0.128958
v -0.963257 3.270657 -0.489676
v -1.232679 2.973661 -1.219104
v -1.928283 0.617792 2.854827
v -1.585712 1.296269 2.769544
v -0.704518 2.822512 -1.844452
v -0.922040 2.360620 -2.413933
v -1.928282 -0.617800 2.854827
v -1.888466 -1.837835 2.214652
v -1.585711 -1.296274 2.769544
v -0.785796 1.361003 -3.127315
v -0.418648 0.725097 -3.341282
v -0.827378 -0.000014 -3.341282
v -1.135202 3.201784 0.842340
v -1.628134 -2.819977 1.283234
v -1.425801 -2.469527 1.932247
v -0.418647 -0.725120 -3.341282
v -0.785794 -1.361030 -3.127314
v -1.571592 -0.000001 3.127315
v -0.963254 -3.270673 -0.489676
v -1.407686 -3.201799 0.128959
v -1.232677 -2.973685 -1.219104
v -0.922038 -2.360646 -2.413933
v -0.704515 -2.822532 -1.844451
v -0.429106 1.978803 -2.854827
v -1.135199 -3.201795 0.842340
v -0.429104 -1.978824 -2.854827
v -0.647400 2.554352 2.214652
v -0.805415 1.394998 3.042032
v -0.329768 2.021385 2.769544
v -0.106051 2.973676 1.730453
v -0.391520 3.270665 1.007154
v -0.149627 3.416505 -0.391725
v 0.149624 3.416509 0.391724
v 0.391517 3.270665 -1.007155
v 0.106048 2.973668 -1.730453
v -0.837297 0.000004 3.341282
v -0.413691 0.716526 3.341282
v 0.647398 2.554348 -2.214652
v 0.329766 2.021375 -2.769544
v -0.805414 -1.394992 3.042032
v -0.413690 -0.716513 3.341282
v 0.413690 0.716513 -3.341282
v 0.805414 1.394992 -3.042032
v -0.647398 -2.554348 2.214652
v -0.329766 -2.021375 2.769544
v 0.837297 -0.000004 -3.341282
v 0.413691 -0.716526 -3.341282
v -0.391517 -3.270665 1.007155
v -0.106048 -2.973668 1.730453
v 0.805415 -1.394998 -3.042032
v 0.329768 -2.021385 -2.769544
v 0.106051 -2.973676 -1.730453
v 0.391520 -3.270665 -1.007154
v -0.149624 -3.416509 -0.391724
v 0.149627 -3.416505 0.391725
v 0.647400 -2.554352 -2.214652
v 0.429104 1.978824 2.854827
v 0.922038 2.360646 2.413933
v 0.704515 2.822532 1.844451
v 1.407686 3.201799 -0.128959
v 1.135199 3.201795 -0.842340
v 0.963254 3.270673 0.489676
v 1.232677 2.973685 1.219104
v 0.418647 0.725120 3.341282
v 0.785794 1.361030 3.127314
v 1.628134 2.819977 -1.283234
v 1.425801 2.469527 -1.932247
v 0.418648 -0.725097 3.341282
v 0.827378 0.000014 3.341282
v 1.585711 1.296274 -2.769544
v 1.888466 1.837835 -2.214652
v 0.429106 -1.978803 2.854827
v 0.785796 -1.361003 3.127315
v 1.928282 0.617800 -2.854827
v 1.571592 0.000001 -3.127315
v 0.704518 -2.822512 1.844452
v 0.922040 -2.360620 2.413933
v 1.928283 -0.617792 -2.854827
v 1.585712 -1.296269 -2.769544
v 0.963257 -3.270657 0.489676
v 1.232679 -2.973661 1.219104
v 1.135202 -3.201784 -0.842340
v 1.407689 -3.201781 -0.128958
v 1.425803 -2.469518 -1.932247
v 1.628136 -2.819962 -1.283234
v 1.888468 -1.837823 -2.214652
v 1.499175 1.361034 2.854827
v 1.583378 1.978831 2.413932
v 2.205271 2.584005 -0.842341
v 2.069027 2.819984 -0.128959
v 1.583380 -1.978796 2.413933
v 1.499177 -1.360999 2.854827
v 2.092153 2.021400 1.844451
v 1.958973 2.554368 1.219104
v 2.350891 2.469541 0.489675
v 2.505420 -0.381810 -2.413933
v 2.505419 0.381828 -2.413934
v 1.610826 0.000019 3.042031
v 1.915476 0.725129 2.769543
v 2.636761 1.974406 -1.007155
v 2.522289 1.578686 -1.730454
v 2.205273 -2.583980 -0.842340
v 2.069030 -2.819956 -0.128958
v 1.915477 -0.725088 2.769544
v 2.796671 0.801153 -1.844452
v 2.092155 -2.021362 1.844451
v 1.958976 -2.554334 1.219104
v 2.796672 -0.801127 -1.844452
v 2.522291 -1.578663 -1.730454
v 2.350894 -2.469506 0.489676
v 2.636763 -1.974376 -1.007155
v 2.628337 1.395019 1.730453
v 2.535864 0.716543 2.214651
v 3.033637 1.578694 -0.391725
v 2.884012 1.837851 0.391724
v 2.628339 -1.394974 1.730453
v 2.535865 -0.716497 2.214651
v 3.191654 -0.419304 -1.219105
v 3.191653 0.419338 -1.219105
v 3.028279 1.296296 1.007154
v 3.033639 -1.578656 -0.391725
v 2.884013 -1.837810 0.391724
v 2.851602 0.000024 1.932246
v 3.314148 0.801161 -0.489677
v 3.028280 -1.296249 1.007154
v 3.314149 -0.801120 -0.489677
v 3.256269 0.000025 1.283233
v 3.340472 0.617821 0.842339
v 3.476716 0.381843 0.128957
v 3.340472 -0.617772 0.842339
v 3.476716 -0.381796 0.128957
vn -0.9822 -0.0000 -0.1876
vn -0.9289 0.3660 -0.0563
vn -0.9788 -0.0000 0.2048
vn -0.8482 0.2262 -0.4790
vn -0.9289 -0.3660 -0.0563
vn -0.8482 -0.2262 -0.4789
vn -0.8727 0.3568 0.3333
vn -0.7454 0.5774 -0.3333
vn -0.8727 -0.3568 0.3333
vn -0.6667 -0.0000 -0.7454
vn -0.7814 0.6215 0.0563
vn -0.7454 -0.5774 -0.3333
vn -0.8661 -0.0000 0.4998
vn -0.8661 -0.0000 0.4999
vn -0.6444 0.3841 -0.6613
vn -0.6443 0.3841 -0.6613
vn -0.7814 -0.6215 0.0563
vn -0.6443 -0.3841 -0.6613
vn -0.6200 0.6215 0.4790
vn -0.6200 0.6215 0.4789
vn -0.4894 0.8477 -0.2048
vn -0.4894 0.8477 -0.2049
vn -0.6548 0.3660 0.6613
vn -0.4331 0.7501 -0.4998
vn -0.6548 -0.3660 0.6613
vn -0.3523 0.1579 -0.9225
vn -0.4911 0.8507 0.1876
vn -0.6200 -0.6215 0.4790
vn -0.6200 -0.6215 0.4789
vn -0.3523 -0.1579 -0.9225
vn -0.6071 -0.0000 0.7947
vn -0.4894 -0.8477 -0.2048
vn -0.4331 -0.7501 -0.4998
vn -0.3035 0.5257 -0.7947
vn -0.4911 -0.8507 0.1876
vn -0.3035 -0.5257 -0.7947
vn -0.3333 0.5774 0.7454
vn -0.2282 0.8477 0.4790
vn -0.2282 0.8477 0.4789
vn -0.1475 0.9875 0.0563
vn -0.1273 0.9342 -0.3333
vn -0.3129 0.2262 0.9224
vn -0.0104 0.7501 -0.6613
vn -0.0105 0.7501 -0.6613
vn -0.3129 -0.2262 0.9224
vn -0.3129 -0.2262 0.9225
vn 0.0394 0.3841 -0.9224
vn -0.3333 -0.5774 0.7454
vn 0.0000 -0.0000 -1.0000
vn -0.2282 -0.8477 0.4790
vn 0.0395 -0.3841 -0.9225
vn -0.1273 -0.9342 -0.3333
vn -0.1475 -0.9875 0.0564
vn -0.1475 -0.9875 0.0563
vn -0.0104 -0.7501 -0.6613
vn -0.0105 -0.7501 -0.6613
vn 0.0104 0.7501 0.6613
vn 0.0105 0.7501 0.6613
vn 0.1475 0.9875 -0.0564
vn 0.1475 0.9875 -0.0563
vn 0.1273 0.9342 0.3333
vn -0.0395 0.3841 0.9225
vn 0.2282 0.8477 -0.4790
vn -0.0000 0.0000 1.0000
vn 0.3333 0.5774 -0.7454
vn -0.0394 -0.3841 0.9224
vn 0.3130 0.2262 -0.9224
vn 0.0104 -0.7501 0.6613
vn 0.0105 -0.7501 0.6613
vn 0.3129 -0.2262 -0.9225
vn 0.3129 -0.2262 -0.9224
vn 0.1273 -0.9342 0.3333
vn 0.1475 -0.9875 -0.0563
vn 0.2283 -0.8477 -0.4789
vn 0.3333 -0.5774 -0.7454
vn 0.3035 0.5257 0.7947
vn 0.4911 0.8507 -0.1876
vn 0.3035 -0.5257 0.7947
vn 0.4331 0.7501 0.4998
vn 0.4894 0.8477 0.2048
vn 0.6071 0.0000 -0.7947
vn 0.3523 0.1579 0.9225
vn 0.6200 0.6215 -0.4790
vn 0.6200 0.6215 -0.4789
vn 0.4911 -0.8507 -0.1876
vn 0.3523 -0.1579 0.9225
vn 0.6548 0.3660 -0.6613
vn 0.4331 -0.7501 0.4999
vn 0.4331 -0.7501 0.4998
vn 0.6548 -0.3660 -0.6613
vn 0.4894 -0.8477 0.2049
vn 0.4894 -0.8477 0.2048
vn 0.6200 -0.6215 -0.4789
vn 0.6444 0.3841 0.6613
vn 0.6443 0.3841 0.6613
vn 0.7814 0.6215 -0.0563
vn 0.6444 -0.3841 0.6613
vn 0.6443 -0.3841 0.6613
vn 0.8661 0.0000 -0.4998
vn 0.8661 0.0000 -0.4999
vn 0.7454 0.5774 0.3333
vn 0.7814 -0.6215 -0.0563
vn 0.6667 0.0000 0.7454
vn 0.8727 0.3568 -0.3333
vn 0.7454 -0.5774 0.3333
vn 0.8727 -0.3568 -0.3333
vn 0.8482 0.2262 0.4789
vn 0.9289 0.3660 0.0563
vn 0.8482 -0.2262 0.4790
vn 0.9788 0.0000 -0.2048
vn 0.9289 -0.3660 0.0563
vn 0.9822 0.0000 0.1876
usemtl None
s 1
f 1//1 2//1 3//1 4//1 5//1
f 6//2 7//2 1//2 5//2 8//2 9//2
f 5//3 4//3 10//3 11//3 12//3 8//3
f 13//4 14//4 2//4 1//4 7//4 15//4
f 4//5 3//5 16//5 17//5 18//5 10//5
f 3//6 2//6 14//6 19//6 20//6 16//6
f 21//7 9//7 8//7 12//7 22//7 23//7
f 24//8 15//8 7//8 6//8 25//8 26//8
f 10//9 18//9 27//9 28//9 29//9 11//9
f 30//10 31//10 32//10 19//10 14//10 13//10
f 33//11 34//11 25//11 6//11 9//11 21//11
f 16//12 20//12 35//12 36//12 37//12 17//12
f 11//13 29//14 38//13 39//13 22//14 12//13
f 40//15 41//15 30//16 13//15 15//15 24//16
f 17//17 37//17 42//17 43//17 27//17 18//17
f 19//18 32//18 44//18 45//18 35//18 20//18
f 46//19 33//19 21//20 23//19 47//19 48//20
f 25//21 34//22 49//22 50//21 51//22 26//22
f 23//23 22//23 39//23 52//23 53//23 47//23
f 51//24 54//24 55//24 40//24 24//24 26//24
f 56//25 38//25 29//25 28//25 57//25 58//25
f 41//26 59//26 60//26 61//26 31//26 30//26
f 62//27 49//27 34//27 33//27 46//27
f 28//28 27//29 43//28 63//28 64//29 57//28
f 61//30 65//30 66//30 44//30 32//30 31//30
f 52//31 39//31 38//31 56//31 67//31
f 68//32 69//32 42//32 37//32 36//32 70//32
f 36//33 35//33 45//33 71//33 72//33 70//33
f 55//34 73//34 59//34 41//34 40//34
f 43//35 42//35 69//35 74//35 63//35
f 45//36 44//36 66//36 75//36 71//36
f 76//37 48//37 47//37 53//37 77//37 78//37
f 79//38 80//39 62//38 46//38 48//39 76//38
f 81//40 50//40 49//40 62//40 80//40 82//40
f 83//41 84//41 54//41 51//41 50//41 81//41
f 77//42 53//42 52//42 67//42 85//42 86//42
f 87//43 88//44 73//43 55//43 54//44 84//43
f 67//45 56//45 58//46 89//46 90//46 85//46
f 91//47 60//47 59//47 73//47 88//47 92//47
f 57//48 64//48 93//48 94//48 89//48 58//48
f 65//49 61//49 60//49 91//49 95//49 96//49
f 63//50 74//50 97//50 98//50 93//50 64//50
f 75//51 66//51 65//51 96//51 99//51 100//51
f 72//52 101//52 102//52 103//52 68//52 70//52
f 74//53 69//53 68//54 103//53 104//53 97//54
f 71//55 75//55 100//56 105//55 101//55 72//56
f 106//57 107//57 108//58 79//57 76//57 78//58
f 109//59 110//59 83//60 81//59 82//59 111//60
f 111//61 82//61 80//61 79//61 108//61 112//61
f 113//62 114//62 106//62 78//62 77//62 86//62
f 110//63 115//63 116//63 87//63 84//63 83//63
f 85//64 90//64 117//64 118//64 113//64 86//64
f 119//65 92//65 88//65 87//65 116//65 120//65
f 89//66 94//66 121//66 122//66 117//66 90//66
f 123//67 124//67 95//67 91//67 92//67 119//67
f 98//68 125//69 126//68 121//68 94//69 93//68
f 96//70 95//71 124//70 127//70 128//71 99//70
f 97//72 104//72 129//72 130//72 125//72 98//72
f 103//73 102//73 131//73 132//73 129//73 104//73
f 105//74 133//74 134//74 131//74 102//74 101//74
f 100//75 99//75 128//75 135//75 133//75 105//75
f 136//76 137//76 107//76 106//76 114//76
f 138//77 115//77 110//77 109//77 139//77
f 121//78 126//78 140//78 141//78 122//78
f 112//79 108//79 107//79 137//79 142//79 143//79
f 139//80 109//80 111//80 112//80 143//80 144//80
f 145//81 127//81 124//81 123//81 146//81
f 147//82 148//82 136//82 114//82 113//82 118//82
f 120//83 116//84 115//83 138//83 149//84 150//83
f 132//85 131//85 134//85 151//85 152//85
f 122//86 141//86 153//86 147//86 118//86 117//86
f 146//87 123//87 119//87 120//87 150//87 154//87
f 155//88 140//89 126//89 125//88 130//89 156//89
f 135//90 128//90 127//90 145//90 157//90 158//90
f 130//91 129//92 132//91 152//91 159//92 156//91
f 151//93 134//93 133//93 135//93 158//93 160//93
f 161//94 142//95 137//94 136//94 148//95 162//94
f 163//96 149//96 138//96 139//96 144//96 164//96
f 141//97 140//97 155//98 165//97 166//97 153//98
f 167//99 157//100 145//99 146//99 154//100 168//99
f 169//101 164//101 144//101 143//101 142//101 161//101
f 152//102 151//102 160//102 170//102 171//102 159//102
f 153//103 166//103 172//103 162//103 148//103 147//103
f 154//104 150//104 149//104 163//104 173//104 168//104
f 159//105 171//105 174//105 165//105 155//105 156//105
f 160//106 158//106 157//106 167//106 175//106 170//106
f 176//107 177//107 169//107 161//107 162//107 172//107
f 177//108 178//108 173//108 163//108 164//108 169//108
f 165//109 174//109 179//109 176//109 172//109 166//109
f 173//110 178//110 180//110 175//110 167//110 168//110
f 170//111 175//111 180//111 179//111 174//111 171//111
f 179//112 180//112 178//112 177//112 176//112
